<svg width="1536" height="960" viewBox="0 0 1536 960" fill="none" xmlns="http://www.w3.org/2000/svg">
<g clip-path="url(#clip0_1_323)">
<rect width="1536" height="960" fill="black"/>
<g clip-path="url(#clip1_1_323)">
<circle cx="203.242" cy="774.513" r="1.72366" fill="white" fill-opacity="0.3"/>
<circle cx="1454.11" cy="724.184" r="1.72366" fill="white" fill-opacity="0.6"/>
<circle cx="1239.34" cy="717.796" r="1.72366" fill="white" fill-opacity="0.3"/>
<circle cx="952.514" cy="661.98" r="1.72366" fill="white" fill-opacity="0.7"/>
<circle cx="522.866" cy="687.905" r="1.72366" fill="white" fill-opacity="0.15"/>
<circle cx="147.999" cy="864.387" r="1.72366" fill="white" fill-opacity="0.1"/>
<circle cx="1298.08" cy="329.496" r="1.72366" fill="white" fill-opacity="0.15"/>
<circle cx="1057.65" cy="226.5" r="1.72366" fill="white" fill-opacity="0.3"/>
<circle cx="635.328" cy="333.373" r="1.72366" fill="white" fill-opacity="0.1"/>
<circle cx="217.149" cy="113.662" r="1.72366" fill="white" fill-opacity="0.3"/>
<circle cx="1462.51" cy="720.798" r="1.72366" fill="white" fill-opacity="0.3"/>
<circle cx="904.547" cy="223.146" r="1.72366" fill="white" fill-opacity="0.3"/>
<circle cx="716.103" cy="82.4419" r="1.72366" fill="white" fill-opacity="0.15"/>
<circle cx="44.4097" cy="533.936" r="1.72366" fill="white" fill-opacity="0.3"/>
<circle cx="120.729" cy="614.755" r="1.72366" fill="white" fill-opacity="0.6"/>
<circle cx="535.419" cy="48.4226" r="1.72366" fill="white" fill-opacity="0.3"/>
<circle cx="1143.71" cy="559.947" r="1.72366" fill="white" fill-opacity="0.3"/>
<circle cx="83.3013" cy="530.318" r="1.72366" fill="white" fill-opacity="0.3"/>
<circle cx="751.631" cy="793.008" r="1.72366" fill="white" fill-opacity="0.3"/>
<circle cx="99.8263" cy="216.664" r="1.72366" fill="white" fill-opacity="0.15"/>
<circle cx="553.175" cy="543.555" r="1.72366" fill="white" fill-opacity="0.3"/>
<circle cx="746.29" cy="272.29" r="1.72366" fill="white" fill-opacity="0.1"/>
<circle cx="581.101" cy="374.592" r="2.58513" fill="white" fill-opacity="0.3"/>
<circle cx="466.917" cy="343.153" r="2.58513" fill="white" fill-opacity="0.3"/>
<circle cx="525.539" cy="649.766" r="2.58513" fill="white" fill-opacity="0.15"/>
<circle cx="1041.14" cy="348.685" r="2.58513" fill="white" fill-opacity="0.1"/>
<circle cx="547.639" cy="239.2" r="2.58513" fill="white" fill-opacity="0.1"/>
<circle cx="480.462" cy="364.875" r="2.58513" fill="white" fill-opacity="0.15"/>
<circle cx="137.732" cy="306.153" r="2.58513" fill="white" fill-opacity="0.1"/>
<circle cx="538.908" cy="485.19" r="2.58513" fill="white" fill-opacity="0.1"/>
<circle cx="588.05" cy="519.43" r="2.58513" fill="white" fill-opacity="0.3"/>
<circle cx="163.417" cy="156.724" r="2.58513" fill="white" fill-opacity="0.3"/>
<circle cx="1408.42" cy="446.53" r="2.58513" fill="white" fill-opacity="0.7"/>
<circle cx="587.692" cy="646.897" r="2.58513" fill="white" fill-opacity="0.7"/>
<circle cx="724.16" cy="613.309" r="0.861472" fill="white" fill-opacity="0.1"/>
<circle cx="759.092" cy="205.812" r="0.861472" fill="white" fill-opacity="0.1"/>
<circle cx="567.115" cy="781.267" r="0.861472" fill="white" fill-opacity="0.15"/>
<circle cx="891.743" cy="664.086" r="0.861472" fill="white" fill-opacity="0.1"/>
<circle cx="1447.85" cy="603.321" r="0.861472" fill="white" fill-opacity="0.1"/>
<circle cx="206.237" cy="204.009" r="0.861472" fill="white" fill-opacity="0.15"/>
<circle cx="296.914" cy="315.11" r="0.861472" fill="white" fill-opacity="0.3"/>
<circle cx="212.081" cy="382.554" r="0.861472" fill="white" fill-opacity="0.1"/>
<circle cx="1076.17" cy="520.047" r="0.861472" fill="white" fill-opacity="0.1"/>
<circle cx="579.697" cy="901.108" r="0.861472" fill="white" fill-opacity="0.3"/>
<circle cx="1446.08" cy="184.227" r="0.861472" fill="white" fill-opacity="0.1"/>
<circle cx="940.489" cy="172.088" r="0.861472" fill="white" fill-opacity="0.15"/>
<circle cx="1240.39" cy="340.287" r="0.861472" fill="white" fill-opacity="0.8"/>
<circle cx="55.4895" cy="821.42" r="0.861472" fill="white" fill-opacity="0.1"/>
<circle cx="354.832" cy="673.464" r="0.861472" fill="white" fill-opacity="0.1"/>
<circle cx="1354.78" cy="436.057" r="0.861472" fill="white" fill-opacity="0.15"/>
<circle cx="284.478" cy="870.807" r="0.861472" fill="white" fill-opacity="0.15"/>
<circle cx="1273.17" cy="737.918" r="0.861472" fill="white" fill-opacity="0.1"/>
<circle cx="753.856" cy="411.209" r="0.861472" fill="white" fill-opacity="0.8"/>
<circle cx="1464.46" cy="106.508" r="0.861472" fill="white" fill-opacity="0.1"/>
<circle cx="1234.85" cy="84.6077" r="0.861472" fill="white" fill-opacity="0.15"/>
<circle cx="55.9877" cy="664.842" r="0.861472" fill="white" fill-opacity="0.15"/>
<circle cx="401.449" cy="889.717" r="0.861472" fill="white" fill-opacity="0.15"/>
<circle cx="415.342" cy="459.334" r="0.861472" fill="white" fill-opacity="0.3"/>
<circle cx="1179.01" cy="879.073" r="0.861472" fill="white" fill-opacity="0.3"/>
<circle cx="101.767" cy="919.257" r="0.861472" fill="white" fill-opacity="0.1"/>
<circle cx="1157.32" cy="515.774" r="0.861472" fill="white" fill-opacity="0.3"/>
<circle cx="813.271" cy="59.0332" r="0.861472" fill="white" fill-opacity="0.1"/>
<circle cx="105.751" cy="77.4695" r="0.861472" fill="white" fill-opacity="0.1"/>
<circle cx="1525.86" cy="952.215" r="0.861472" fill="white" fill-opacity="0.1"/>
<circle cx="60.5065" cy="606.322" r="0.861472" fill="white" fill-opacity="0.1"/>
<circle cx="1153.53" cy="851.433" r="0.861472" fill="white" fill-opacity="0.1"/>
<circle cx="331.792" cy="172.032" r="0.861472" fill="white" fill-opacity="0.6"/>
<circle cx="853.155" cy="76.7155" r="0.861472" fill="white" fill-opacity="0.3"/>
<circle cx="1282.81" cy="817.925" r="0.861472" fill="white" fill-opacity="0.1"/>
<circle cx="1245.93" cy="458.952" r="0.861472" fill="white" fill-opacity="0.3"/>
<circle cx="1495.83" cy="496.052" r="0.861472" fill="white" fill-opacity="0.3"/>
<circle cx="472.627" cy="330.955" r="0.861472" fill="white" fill-opacity="0.1"/>
<circle cx="721.959" cy="249.313" r="0.861472" fill="white" fill-opacity="0.3"/>
<circle cx="498.407" cy="566.023" r="0.861472" fill="white" fill-opacity="0.15"/>
<circle cx="473.582" cy="419.963" r="0.861472" fill="white" fill-opacity="0.1"/>
<circle cx="332.355" cy="26.2799" r="0.861472" fill="white" fill-opacity="0.15"/>
<circle cx="1200.72" cy="185.218" r="0.861472" fill="white" fill-opacity="0.3"/>
<circle cx="119.35" cy="719.898" r="0.861472" fill="white" fill-opacity="0.3"/>
<circle cx="318.972" cy="253.112" r="0.861472" fill="white" fill-opacity="0.3"/>
<circle cx="1213.41" cy="954.298" r="0.861472" fill="white" fill-opacity="0.1"/>
<circle cx="240.433" cy="671.075" r="0.861472" fill="white" fill-opacity="0.1"/>
<circle cx="938.388" cy="384.555" r="0.861472" fill="white" fill-opacity="0.1"/>
<circle cx="1288.94" cy="96.1562" r="0.861472" fill="white" fill-opacity="0.3"/>
<circle cx="1257.83" cy="146.468" r="0.861472" fill="white" fill-opacity="0.3"/>
<circle cx="1527" cy="462.202" r="0.861472" fill="white" fill-opacity="0.7"/>
<circle cx="344.825" cy="684.489" r="0.861472" fill="white" fill-opacity="0.3"/>
<circle cx="555.904" cy="27.2193" r="0.861472" fill="white" fill-opacity="0.1"/>
<circle cx="1163.57" cy="89.9745" r="0.861472" fill="white" fill-opacity="0.3"/>
<circle cx="663.775" cy="111.657" r="0.861472" fill="white" fill-opacity="0.3"/>
<circle cx="1485.51" cy="585.616" r="0.861472" fill="white" fill-opacity="0.1"/>
<circle cx="417.099" cy="955.716" r="0.861472" fill="white" fill-opacity="0.1"/>
<circle cx="912.704" cy="256.438" r="0.861472" fill="white" fill-opacity="0.1"/>
<circle cx="1162.35" cy="885.727" r="0.861472" fill="white" fill-opacity="0.3"/>
<circle cx="764.597" cy="684.167" r="0.861472" fill="white" fill-opacity="0.3"/>
<circle cx="326.939" cy="479.958" r="0.861472" fill="white" fill-opacity="0.7"/>
<circle cx="539.151" cy="22.8939" r="0.861472" fill="white" fill-opacity="0.3"/>
<circle cx="1387.73" cy="554.012" r="0.861472" fill="white" fill-opacity="0.1"/>
<circle cx="224.123" cy="666.557" r="0.861472" fill="white" fill-opacity="0.15"/>
<circle cx="1192.68" cy="723.364" r="0.861472" fill="white" fill-opacity="0.3"/>
<circle cx="438.273" cy="646.768" r="0.861472" fill="white" fill-opacity="0.1"/>
<circle cx="728.545" cy="0.103293" r="0.861472" fill="white" fill-opacity="0.3"/>
<circle cx="1235.22" cy="239.166" r="0.861472" fill="white" fill-opacity="0.1"/>
<circle cx="957.477" cy="495.235" r="0.861472" fill="white" fill-opacity="0.3"/>
<circle cx="723.903" cy="639.763" r="0.861472" fill="white" fill-opacity="0.15"/>
<circle cx="234.812" cy="899.201" r="0.861472" fill="white" fill-opacity="0.3"/>
<circle cx="526.987" cy="387.983" r="0.861472" fill="white" fill-opacity="0.3"/>
<circle cx="508.413" cy="99.0282" r="0.861472" fill="white" fill-opacity="0.1"/>
<circle cx="1197.67" cy="613.684" r="0.861472" fill="white" fill-opacity="0.3"/>
<circle cx="249.749" cy="593.857" r="0.861472" fill="white" fill-opacity="0.1"/>
<circle cx="968.794" cy="703.351" r="0.861472" fill="white" fill-opacity="0.1"/>
<circle cx="328.851" cy="378.757" r="0.861472" fill="white" fill-opacity="0.15"/>
<circle cx="682.679" cy="712.883" r="0.861472" fill="white" fill-opacity="0.3"/>
<circle cx="754.731" cy="216.718" r="0.861472" fill="white" fill-opacity="0.3"/>
<circle cx="824.571" cy="960.298" r="0.861472" fill="white" fill-opacity="0.1"/>
<circle cx="328.907" cy="496.849" r="0.861472" fill="white" fill-opacity="0.1"/>
<circle cx="302.842" cy="486.469" r="0.861472" fill="white" fill-opacity="0.3"/>
<circle cx="1256.08" cy="328.043" r="0.861472" fill="white" fill-opacity="0.1"/>
<circle cx="1468.98" cy="430.062" r="0.861472" fill="white" fill-opacity="0.6"/>
<circle cx="1461.55" cy="203.617" r="0.861472" fill="white" fill-opacity="0.3"/>
<circle cx="1319.2" cy="53.2495" r="0.861472" fill="white" fill-opacity="0.3"/>
<circle cx="1.34707" cy="118.658" r="0.861472" fill="white" fill-opacity="0.8"/>
<circle cx="1290.78" cy="254.646" r="0.861472" fill="white" fill-opacity="0.1"/>
<circle cx="1265.43" cy="859.031" r="0.861472" fill="white" fill-opacity="0.1"/>
<circle cx="501.369" cy="797.643" r="0.861472" fill="white" fill-opacity="0.1"/>
<circle cx="535.996" cy="819.415" r="0.861472" fill="white" fill-opacity="0.6"/>
<circle cx="1051.99" cy="512.124" r="0.861472" fill="white" fill-opacity="0.3"/>
<circle cx="1145.13" cy="38.4306" r="0.861472" fill="white" fill-opacity="0.3"/>
<circle cx="1440.28" cy="420.532" r="0.861472" fill="white" fill-opacity="0.1"/>
<circle cx="1313.22" cy="174.578" r="0.861472" fill="white" fill-opacity="0.3"/>
<circle cx="887.583" cy="929.789" r="0.861472" fill="white" fill-opacity="0.1"/>
<circle cx="698.88" cy="573.061" r="0.861472" fill="white" fill-opacity="0.15"/>
<circle cx="355.342" cy="610.557" r="0.861472" fill="white" fill-opacity="0.1"/>
<circle cx="219.858" cy="61.0358" r="0.861472" fill="white" fill-opacity="0.3"/>
<circle cx="367.76" cy="551.173" r="0.861472" fill="white" fill-opacity="0.1"/>
<circle cx="273.087" cy="146.017" r="0.861472" fill="white" fill-opacity="0.15"/>
<circle cx="869.274" cy="231.415" r="0.861472" fill="white" fill-opacity="0.3"/>
<circle cx="575.264" cy="829.892" r="0.861472" fill="white" fill-opacity="0.15"/>
<circle cx="195.324" cy="685.38" r="0.861472" fill="white" fill-opacity="0.3"/>
<circle cx="1446.59" cy="633.136" r="0.861472" fill="white" fill-opacity="0.1"/>
<circle cx="727.438" cy="223.233" r="0.861472" fill="white" fill-opacity="0.1"/>
<circle cx="1062.87" cy="12.7885" r="0.861472" fill="white" fill-opacity="0.15"/>
<circle cx="531.855" cy="605.097" r="0.861472" fill="white" fill-opacity="0.1"/>
<circle cx="940.314" cy="25.1221" r="0.861472" fill="white" fill-opacity="0.3"/>
<circle cx="66.8922" cy="832.867" r="0.861472" fill="white" fill-opacity="0.15"/>
<circle cx="1307.31" cy="883.348" r="0.861472" fill="white" fill-opacity="0.3"/>
<circle cx="1015" cy="627.007" r="0.861472" fill="white" fill-opacity="0.1"/>
<path d="M892.414 750.744L893.907 753.33H890.922L892.414 750.744Z" fill="white" fill-opacity="0.15"/>
<circle cx="913.262" cy="937.208" r="1.72366" fill="white" fill-opacity="0.3"/>
<circle cx="958.297" cy="887.958" r="1.72366" fill="white" fill-opacity="0.3"/>
<circle cx="767.965" cy="903.474" r="0.861472" fill="white" fill-opacity="0.1"/>
<circle cx="1030.03" cy="935.339" r="0.861472" fill="white" fill-opacity="0.15"/>
<path d="M839.242 654.364L840.734 656.95H837.749L839.242 654.364Z" fill="white" fill-opacity="0.1"/>
<path d="M710.289 711.944L711.782 714.53H708.796L710.289 711.944Z" fill="white" fill-opacity="0.3"/>
<path d="M69.4197 326.514L70.9124 329.099H67.927L69.4197 326.514Z" fill="white" fill-opacity="0.1"/>
<path d="M160.108 693.793L161.601 696.378H158.615L160.108 693.793Z" fill="white" fill-opacity="0.6"/>
<path d="M1028.42 10.3446L1029.91 12.9301H1026.93L1028.42 10.3446Z" fill="white" fill-opacity="0.1"/>
<path d="M960.728 580.907L962.221 583.492H959.236L960.728 580.907Z" fill="white" fill-opacity="0.1"/>
<circle cx="911.126" cy="656.287" r="1.72366" fill="white" fill-opacity="0.3"/>
<circle cx="690.053" cy="437.452" r="2.58513" fill="white" fill-opacity="0.3"/>
<circle cx="914.266" cy="606.709" r="0.861472" fill="white" fill-opacity="0.3"/>
<circle cx="803.396" cy="526.603" r="0.861472" fill="white" fill-opacity="0.1"/>
<circle cx="826.566" cy="542.978" r="0.861472" fill="white" fill-opacity="0.1"/>
<circle cx="862.086" cy="422.644" r="0.861472" fill="white" fill-opacity="0.1"/>
<circle cx="848.192" cy="639.506" r="0.861472" fill="white" fill-opacity="0.7"/>
<circle cx="648.717" cy="467.294" r="0.861472" fill="white" fill-opacity="0.3"/>
<circle cx="929.728" cy="645.577" r="0.861472" fill="white" fill-opacity="0.1"/>
<circle cx="794.751" cy="680.181" r="0.861472" fill="white" fill-opacity="0.3"/>
<circle cx="991.052" cy="552.871" r="0.861472" fill="white" fill-opacity="0.15"/>
<circle cx="927.335" cy="432.611" r="0.861472" fill="white" fill-opacity="0.3"/>
<circle cx="650.095" cy="632.032" r="0.861472" fill="white" fill-opacity="0.1"/>
<path d="M833.754 565.049L835.247 567.635H832.261L833.754 565.049Z" fill="white" fill-opacity="0.3"/>
<path d="M1275.95 573.548L1277.45 576.133H1274.46L1275.95 573.548Z" fill="white" fill-opacity="0.3"/>
<path d="M1164.18 885.76L1165.68 888.345H1162.69L1164.18 885.76Z" fill="white" fill-opacity="0.1"/>
<path d="M180.136 772.389L181.628 774.974H178.643L180.136 772.389Z" fill="white" fill-opacity="0.3"/>
<circle cx="1330.17" cy="155.026" r="3.16061" transform="rotate(26.8111 1330.17 155.026)" fill="white" fill-opacity="0.1"/>
<circle cx="1430.27" cy="152.137" r="1.05325" transform="rotate(26.8111 1430.27 152.137)" fill="white" fill-opacity="0.6"/>
<circle cx="1531.24" cy="286.518" r="1.05325" transform="rotate(26.8111 1531.24 286.518)" fill="white" fill-opacity="0.1"/>
<circle cx="1528.62" cy="121.05" r="1.05325" transform="rotate(26.8111 1528.62 121.05)" fill="white" fill-opacity="0.1"/>
<circle cx="1504.41" cy="153.617" r="1.05325" transform="rotate(26.8111 1504.41 153.617)" fill="white" fill-opacity="0.1"/>
<circle cx="1380.32" cy="219.518" r="1.05325" transform="rotate(26.8111 1380.32 219.518)" fill="white" fill-opacity="0.1"/>
<circle cx="1379.17" cy="146.75" r="1.05325" transform="rotate(26.8111 1379.17 146.75)" fill="white" fill-opacity="0.15"/>
<circle cx="1405.19" cy="115.244" r="1.05325" transform="rotate(26.8111 1405.19 115.244)" fill="white" fill-opacity="0.3"/>
<circle cx="1445.19" cy="122.802" r="1.05325" transform="rotate(26.8111 1445.19 122.802)" fill="white" fill-opacity="0.3"/>
<circle cx="1537.37" cy="305.297" r="1.05325" transform="rotate(26.8111 1537.37 305.297)" fill="white" fill-opacity="0.15"/>
<path d="M678.437 624.723L679.93 627.308H676.944L678.437 624.723Z" fill="white" fill-opacity="0.1"/>
<path d="M2.03457 543.365L2.40021 544.723L3.75822 545.088L2.40021 545.454L2.03457 546.812L1.66893 545.454L0.310913 545.088L1.66893 544.723L2.03457 543.365Z" fill="white" fill-opacity="0.1"/>
<path d="M934.446 11.6036L934.812 12.9617L936.17 13.3273L934.812 13.6929L934.446 15.0509L934.08 13.6929L932.722 13.3273L934.08 12.9617L934.446 11.6036Z" fill="white" fill-opacity="0.3"/>
<path d="M851.568 422.828L851.934 424.186L853.292 424.552L851.934 424.917L851.568 426.275L851.202 424.917L849.844 424.552L851.202 424.186L851.568 422.828Z" fill="white" fill-opacity="0.1"/>
<path d="M1334.34 738.208L1334.71 739.566L1336.07 739.932L1334.71 740.297L1334.34 741.655L1333.98 740.297L1332.62 739.932L1333.98 739.566L1334.34 738.208Z" fill="white" fill-opacity="0.1"/>
<path d="M1466.11 408.863L1466.48 410.221L1467.83 410.587L1466.48 410.953L1466.11 412.311L1465.75 410.953L1464.39 410.587L1465.75 410.221L1466.11 408.863Z" fill="white" fill-opacity="0.1"/>
<path d="M597.469 609.987L597.835 611.345L599.193 611.71L597.835 612.076L597.469 613.434L597.104 612.076L595.746 611.71L597.104 611.345L597.469 609.987Z" fill="white" fill-opacity="0.1"/>
<circle cx="1032.18" cy="330.937" r="1.72366" fill="white" fill-opacity="0.3"/>
<circle cx="1392.36" cy="428.954" r="1.72366" fill="white" fill-opacity="0.3"/>
<circle cx="1285.21" cy="288.174" r="1.72366" fill="white" fill-opacity="0.3"/>
<circle cx="843.101" cy="383.479" r="1.72366" fill="white" fill-opacity="0.1"/>
<circle cx="1046.26" cy="247.832" r="2.58513" fill="white" fill-opacity="0.1"/>
<circle cx="1043.79" cy="414.349" r="2.58513" fill="white" fill-opacity="0.1"/>
<circle cx="1069.57" cy="522.826" r="2.58513" fill="white" fill-opacity="0.1"/>
<circle cx="988.373" cy="284.606" r="0.861472" fill="white" fill-opacity="0.3"/>
<circle cx="1435.82" cy="280.361" r="0.861472" fill="white" fill-opacity="0.1"/>
<circle cx="1419" cy="289.242" r="0.861472" fill="white" fill-opacity="0.1"/>
<circle cx="1124.57" cy="324.807" r="0.861472" fill="white" fill-opacity="0.1"/>
<circle cx="1419.71" cy="248.984" r="0.861472" fill="white" fill-opacity="0.6"/>
<circle cx="1162.62" cy="487.566" r="0.861472" fill="white" fill-opacity="0.7"/>
<circle cx="879.695" cy="211.474" r="0.861472" fill="white" fill-opacity="0.6"/>
<circle cx="1189.62" cy="457.702" r="0.861472" fill="white" fill-opacity="0.1"/>
<circle cx="1217.59" cy="349.092" r="0.861472" fill="white" fill-opacity="0.15"/>
<circle cx="936.653" cy="466.745" r="0.861472" fill="white" fill-opacity="0.3"/>
<circle cx="1347.83" cy="278.711" r="0.861472" fill="white" fill-opacity="0.1"/>
<circle cx="1439.3" cy="215.697" r="0.861472" fill="white" fill-opacity="0.1"/>
<circle cx="1271.06" cy="510.975" r="0.861472" fill="white" fill-opacity="0.3"/>
<circle cx="1394.36" cy="305.284" r="0.861472" fill="white" fill-opacity="0.1"/>
<circle cx="1161.66" cy="286.371" r="0.861472" fill="white" fill-opacity="0.3"/>
<circle cx="1322.12" cy="457.334" r="0.861472" fill="white" fill-opacity="0.3"/>
<circle cx="1452.23" cy="338.064" r="0.861472" fill="white" fill-opacity="0.1"/>
<circle cx="1348.16" cy="433.891" r="0.861472" fill="white" fill-opacity="0.3"/>
<circle cx="579.68" cy="857.303" r="2.58513" fill="white" fill-opacity="0.3"/>
<circle cx="358.844" cy="879.264" r="0.861472" fill="white" fill-opacity="0.15"/>
<circle cx="499.887" cy="939.258" r="0.861472" fill="white" fill-opacity="0.3"/>
<circle cx="531.062" cy="905.409" r="0.861472" fill="white" fill-opacity="0.7"/>
<circle cx="473.038" cy="873.268" r="0.861472" fill="white" fill-opacity="0.6"/>
<circle cx="444.343" cy="863.739" r="0.861472" fill="white" fill-opacity="0.1"/>
<path d="M71.4845 450.478L71.8502 451.836L73.2082 452.201L71.8502 452.567L71.4845 453.925L71.1189 452.567L69.7609 452.201L71.1189 451.836L71.4845 450.478Z" fill="white" fill-opacity="0.1"/>
<path d="M273.072 643.548L273.438 644.906L274.796 645.272L273.438 645.638L273.072 646.996L272.707 645.638L271.349 645.272L272.707 644.906L273.072 643.548Z" fill="white" fill-opacity="0.6"/>
<path d="M385.024 473.499L385.39 474.857L386.748 475.223L385.39 475.589L385.024 476.947L384.659 475.589L383.301 475.223L384.659 474.857L385.024 473.499Z" fill="white" fill-opacity="0.1"/>
<path d="M407.58 945.381L407.946 946.739L409.304 947.105L407.946 947.47L407.58 948.828L407.215 947.47L405.857 947.105L407.215 946.739L407.58 945.381Z" fill="white" fill-opacity="0.1"/>
<path d="M303.266 575.451L303.632 576.809L304.99 577.175L303.632 577.541L303.266 578.899L302.9 577.541L301.542 577.175L302.9 576.809L303.266 575.451Z" fill="white" fill-opacity="0.8"/>
<path d="M1108.32 62.106L1108.68 63.464L1110.04 63.8296L1108.68 64.1953L1108.32 65.5533L1107.95 64.1953L1106.59 63.8296L1107.95 63.464L1108.32 62.106Z" fill="white" fill-opacity="0.15"/>
<circle cx="615.792" cy="791.625" r="0.861472" fill="white" fill-opacity="0.1"/>
<path d="M470.171 852.07L470.537 853.428L471.895 853.794L470.537 854.159L470.171 855.517L469.806 854.159L468.448 853.794L469.806 853.428L470.171 852.07Z" fill="white" fill-opacity="0.1"/>
<circle cx="396.422" cy="872.161" r="1.72366" fill="white" fill-opacity="0.3"/>
<circle cx="326.181" cy="900.541" r="0.861472" fill="white" fill-opacity="0.3"/>
<circle cx="352.223" cy="877.098" r="0.861472" fill="white" fill-opacity="0.3"/>
<circle cx="1312.49" cy="299.461" r="0.861472" fill="white" fill-opacity="0.3"/>
<circle cx="1162.63" cy="204.61" r="0.861472" fill="white" fill-opacity="0.3"/>
<path d="M1074.5 264.584L1076 267.169H1073.01L1074.5 264.584Z" fill="white" fill-opacity="0.3"/>
<path d="M1100.27 307.335L1101.76 309.921H1098.77L1100.27 307.335Z" fill="white" fill-opacity="0.3"/>
<path d="M1155.5 475.621L1156.99 478.206H1154L1155.5 475.621Z" fill="white" fill-opacity="0.1"/>
<path d="M963.673 438.096L964.039 439.454L965.397 439.82L964.039 440.185L963.673 441.543L963.307 440.185L961.949 439.82L963.307 439.454L963.673 438.096Z" fill="white" fill-opacity="0.3"/>
<path d="M1010.63 222.054L1011 223.412L1012.35 223.778L1011 224.143L1010.63 225.501L1010.26 224.143L1008.91 223.778L1010.26 223.412L1010.63 222.054Z" fill="white" fill-opacity="0.1"/>
<path d="M1069.1 703.828L1069.46 705.186L1070.82 705.552L1069.46 705.917L1069.1 707.275L1068.73 705.917L1067.37 705.552L1068.73 705.186L1069.1 703.828Z" fill="white" fill-opacity="0.3"/>
<path d="M1459.56 611.381L1459.92 612.739L1461.28 613.105L1459.92 613.47L1459.56 614.828L1459.19 613.47L1457.83 613.105L1459.19 612.739L1459.56 611.381Z" fill="white" fill-opacity="0.6"/>
<path d="M326.602 350.218L326.967 351.576L328.325 351.941L326.967 352.307L326.602 353.665L326.236 352.307L324.878 351.941L326.236 351.576L326.602 350.218Z" fill="white" fill-opacity="0.15"/>
<path d="M473.789 519.661L474.154 521.02L475.512 521.385L474.154 521.751L473.789 523.109L473.423 521.751L472.065 521.385L473.423 521.02L473.789 519.661Z" fill="white" fill-opacity="0.3"/>
<path d="M689.544 39.6134L689.91 40.9714L691.268 41.3371L689.91 41.7027L689.544 43.0607L689.178 41.7027L687.82 41.3371L689.178 40.9714L689.544 39.6134Z" fill="white" fill-opacity="0.1"/>
<circle cx="38.8836" cy="236.471" r="1.72366" fill="white" fill-opacity="0.1"/>
<circle cx="12.5291" cy="399.727" r="1.72366" fill="white" fill-opacity="0.3"/>
<circle cx="35.5386" cy="470.108" r="2.58513" fill="white" fill-opacity="0.1"/>
<circle cx="127.913" cy="370.311" r="2.58513" fill="white" fill-opacity="0.3"/>
<circle cx="125.36" cy="490.028" r="0.861472" fill="white" fill-opacity="0.3"/>
<circle cx="77.2301" cy="329.099" r="0.861472" fill="white" fill-opacity="0.1"/>
<circle cx="136.851" cy="222.672" r="0.861472" fill="white" fill-opacity="0.6"/>
<circle cx="62.2057" cy="465.251" r="0.861472" fill="white" fill-opacity="0.15"/>
<circle cx="45.3819" cy="475.865" r="0.861472" fill="white" fill-opacity="0.1"/>
<circle cx="116.255" cy="349.065" r="0.861472" fill="white" fill-opacity="0.3"/>
<circle cx="94.4064" cy="354.184" r="0.861472" fill="white" fill-opacity="0.1"/>
</g>
<g style="mix-blend-mode:screen" filter="url(#filter0_f_1_323)">
<path d="M431.354 778.307C700.38 17.472 1279.51 -343.764 1424.78 -444L-427.077 129.281L-154.696 1755.78C243.621 1664.21 177.132 1497.28 431.354 778.307Z" fill="url(#paint0_radial_1_323)" fill-opacity="0.23"/>
</g>
</g>
<defs>
<filter id="filter0_f_1_323" x="-487.077" y="-504" width="1971.85" height="2319.78" filterUnits="userSpaceOnUse" color-interpolation-filters="sRGB">
<feFlood flood-opacity="0" result="BackgroundImageFix"/>
<feBlend mode="normal" in="SourceGraphic" in2="BackgroundImageFix" result="shape"/>
<feGaussianBlur stdDeviation="30" result="effect1_foregroundBlur_1_323"/>
</filter>
<radialGradient id="paint0_radial_1_323" cx="0" cy="0" r="1" gradientUnits="userSpaceOnUse" gradientTransform="translate(934.142 601.853) rotate(-150.409) scale(1063.19 1063.22)">
<stop offset="0.409332" stop-color="#6042FE"/>
<stop offset="1" stop-opacity="0"/>
<stop offset="1" stop-color="#2D2E32" stop-opacity="0"/>
</radialGradient>
<clipPath id="clip0_1_323">
<rect width="1536" height="960" fill="white"/>
</clipPath>
<clipPath id="clip1_1_323">
<rect width="1976" height="1213.15" fill="white" transform="translate(-236 -99)"/>
</clipPath>
</defs>
</svg>
